<!DOCTYPE svg PUBLIC "-//W3C//DTD SVG 1.1//EN" "http://www.w3.org/Graphics/SVG/1.1/DTD/svg11.dtd">
<svg width="50%" height="50%" viewBox="0 0 3000 1700" version="1.1"
    xmlns="http://www.w3.org/2000/svg">
    <style type="text/css"><![CDATA[
    @-webkit-keyframes animate-svg-fill-1 {
    0% {
        fill: transparent;
    }

    100% {
        fill: rgb(150, 150, 150);
    }
    }

    @keyframes animate-svg-fill-1 {
    0% {
        fill: transparent;
    }

    100% {
        fill: rgb(150, 150, 150);
    }
    }

    .svg-elem-1 {
    -webkit-animation: animate-svg-fill-1 0.7s cubic-bezier(0.47, 0, 0.745, 0.715) 0.8s both;
            animation: animate-svg-fill-1 0.7s cubic-bezier(0.47, 0, 0.745, 0.715) 0.8s both;
    }

    @-webkit-keyframes animate-svg-fill-2 {
    0% {
        fill: transparent;
    }

    100% {
        fill: rgb(150, 150, 150);
    }
    }

    @keyframes animate-svg-fill-2 {
    0% {
        fill: transparent;
    }

    100% {
        fill: rgb(150, 150, 150);
    }
    }

    .svg-elem-2 {
    -webkit-animation: animate-svg-fill-2 0.7s cubic-bezier(0.47, 0, 0.745, 0.715) 0.9s both;
            animation: animate-svg-fill-2 0.7s cubic-bezier(0.47, 0, 0.745, 0.715) 0.9s both;
    }

    @-webkit-keyframes animate-svg-fill-3 {
    0% {
        fill: transparent;
    }

    100% {
        fill: rgb(150, 150, 150);
    }
    }

    @keyframes animate-svg-fill-3 {
    0% {
        fill: transparent;
    }

    100% {
        fill: rgb(150, 150, 150);
    }
    }

    .svg-elem-3 {
    -webkit-animation: animate-svg-fill-3 0.7s cubic-bezier(0.47, 0, 0.745, 0.715) 1s both;
            animation: animate-svg-fill-3 0.7s cubic-bezier(0.47, 0, 0.745, 0.715) 1s both;
    }

    @-webkit-keyframes animate-svg-fill-4 {
    0% {
        fill: transparent;
    }

    100% {
        fill: rgb(150, 150, 150);
    }
    }

    @keyframes animate-svg-fill-4 {
    0% {
        fill: transparent;
    }

    100% {
        fill: rgb(150, 150, 150);
    }
    }

    .svg-elem-4 {
    -webkit-animation: animate-svg-fill-4 0.7s cubic-bezier(0.47, 0, 0.745, 0.715) 1.1s both;
            animation: animate-svg-fill-4 0.7s cubic-bezier(0.47, 0, 0.745, 0.715) 1.1s both;
    }

    @-webkit-keyframes animate-svg-fill-5 {
    0% {
        fill: transparent;
    }

    100% {
        fill: rgb(150, 150, 150);
    }
    }

    @keyframes animate-svg-fill-5 {
    0% {
        fill: transparent;
    }

    100% {
        fill: rgb(150, 150, 150);
    }
    }

    .svg-elem-5 {
    -webkit-animation: animate-svg-fill-5 0.7s cubic-bezier(0.47, 0, 0.745, 0.715) 1.2000000000000002s both;
            animation: animate-svg-fill-5 0.7s cubic-bezier(0.47, 0, 0.745, 0.715) 1.2000000000000002s both;
    }

    @-webkit-keyframes animate-svg-fill-6 {
    0% {
        fill: transparent;
    }

    100% {
        fill: rgb(107, 107, 107);
    }
    }

    @keyframes animate-svg-fill-6 {
    0% {
        fill: transparent;
    }

    100% {
        fill: rgb(107, 107, 107);
    }
    }

    .svg-elem-6 {
    -webkit-animation: animate-svg-fill-6 0.7s cubic-bezier(0.47, 0, 0.745, 0.715) 1.3s both;
            animation: animate-svg-fill-6 0.7s cubic-bezier(0.47, 0, 0.745, 0.715) 1.3s both;
    }

    @-webkit-keyframes animate-svg-fill-7 {
    0% {
        fill: transparent;
    }

    100% {
        fill: rgb(107, 107, 107);
    }
    }

    @keyframes animate-svg-fill-7 {
    0% {
        fill: transparent;
    }

    100% {
        fill: rgb(107, 107, 107);
    }
    }

    .svg-elem-7 {
    -webkit-animation: animate-svg-fill-7 0.7s cubic-bezier(0.47, 0, 0.745, 0.715) 1.4000000000000001s both;
            animation: animate-svg-fill-7 0.7s cubic-bezier(0.47, 0, 0.745, 0.715) 1.4000000000000001s both;
    }

    @-webkit-keyframes animate-svg-fill-8 {
    0% {
        fill: transparent;
    }

    100% {
        fill: rgb(107, 107, 107);
    }
    }

    @keyframes animate-svg-fill-8 {
    0% {
        fill: transparent;
    }

    100% {
        fill: rgb(107, 107, 107);
    }
    }

    .svg-elem-8 {
    -webkit-animation: animate-svg-fill-8 0.7s cubic-bezier(0.47, 0, 0.745, 0.715) 1.5s both;
            animation: animate-svg-fill-8 0.7s cubic-bezier(0.47, 0, 0.745, 0.715) 1.5s both;
    }

    @-webkit-keyframes animate-svg-fill-9 {
    0% {
        fill: transparent;
    }

    100% {
        fill: rgb(22, 22, 22);
    }
    }

    @keyframes animate-svg-fill-9 {
    0% {
        fill: transparent;
    }

    100% {
        fill: rgb(22, 22, 22);
    }
    }

    .svg-elem-9 {
    -webkit-animation: animate-svg-fill-9 0.7s cubic-bezier(0.47, 0, 0.745, 0.715) 1.6s both;
            animation: animate-svg-fill-9 0.7s cubic-bezier(0.47, 0, 0.745, 0.715) 1.6s both;
    }

    @-webkit-keyframes animate-svg-fill-10 {
    0% {
        fill: transparent;
    }

    100% {
        fill: rgb(22, 22, 22);
    }
    }

    @keyframes animate-svg-fill-10 {
    0% {
        fill: transparent;
    }

    100% {
        fill: rgb(22, 22, 22);
    }
    }

    .svg-elem-10 {
    -webkit-animation: animate-svg-fill-10 0.7s cubic-bezier(0.47, 0, 0.745, 0.715) 1.7000000000000002s both;
            animation: animate-svg-fill-10 0.7s cubic-bezier(0.47, 0, 0.745, 0.715) 1.7000000000000002s both;
    }

    @-webkit-keyframes animate-svg-fill-11 {
    0% {
        fill: transparent;
    }

    100% {
        fill: rgb(22, 22, 22);
    }
    }

    @keyframes animate-svg-fill-11 {
    0% {
        fill: transparent;
    }

    100% {
        fill: rgb(22, 22, 22);
    }
    }

    .svg-elem-11 {
    -webkit-animation: animate-svg-fill-11 0.7s cubic-bezier(0.47, 0, 0.745, 0.715) 1.8s both;
            animation: animate-svg-fill-11 0.7s cubic-bezier(0.47, 0, 0.745, 0.715) 1.8s both;
    }

    @-webkit-keyframes animate-svg-fill-12 {
    0% {
        fill: transparent;
    }

    100% {
        fill: rgb(22, 22, 22);
    }
    }

    @keyframes animate-svg-fill-12 {
    0% {
        fill: transparent;
    }

    100% {
        fill: rgb(22, 22, 22);
    }
    }

    .svg-elem-12 {
    -webkit-animation: animate-svg-fill-12 0.7s cubic-bezier(0.47, 0, 0.745, 0.715) 1.9000000000000001s both;
            animation: animate-svg-fill-12 0.7s cubic-bezier(0.47, 0, 0.745, 0.715) 1.9000000000000001s both;
    }

    @-webkit-keyframes animate-svg-fill-13 {
    0% {
        fill: transparent;
    }

    100% {
        fill: rgb(22, 22, 22);
    }
    }

    @keyframes animate-svg-fill-13 {
    0% {
        fill: transparent;
    }

    100% {
        fill: rgb(22, 22, 22);
    }
    }

    .svg-elem-13 {
    -webkit-animation: animate-svg-fill-13 0.7s cubic-bezier(0.47, 0, 0.745, 0.715) 2s both;
            animation: animate-svg-fill-13 0.7s cubic-bezier(0.47, 0, 0.745, 0.715) 2s both;
    }

    @-webkit-keyframes animate-svg-fill-14 {
    0% {
        fill: transparent;
    }

    100% {
        fill: rgb(22, 22, 22);
    }
    }

    @keyframes animate-svg-fill-14 {
    0% {
        fill: transparent;
    }

    100% {
        fill: rgb(22, 22, 22);
    }
    }

    .svg-elem-14 {
    -webkit-animation: animate-svg-fill-14 0.7s cubic-bezier(0.47, 0, 0.745, 0.715) 2.1s both;
            animation: animate-svg-fill-14 0.7s cubic-bezier(0.47, 0, 0.745, 0.715) 2.1s both;
    }

    @-webkit-keyframes animate-svg-fill-15 {
    0% {
        fill: transparent;
    }

    100% {
        fill: rgb(22, 22, 22);
    }
    }

    @keyframes animate-svg-fill-15 {
    0% {
        fill: transparent;
    }

    100% {
        fill: rgb(22, 22, 22);
    }
    }

    .svg-elem-15 {
    -webkit-animation: animate-svg-fill-15 0.7s cubic-bezier(0.47, 0, 0.745, 0.715) 2.2s both;
            animation: animate-svg-fill-15 0.7s cubic-bezier(0.47, 0, 0.745, 0.715) 2.2s both;
    }

    @-webkit-keyframes animate-svg-fill-16 {
    0% {
        fill: transparent;
    }

    100% {
        fill: rgb(22, 22, 22);
    }
    }

    @keyframes animate-svg-fill-16 {
    0% {
        fill: transparent;
    }

    100% {
        fill: rgb(22, 22, 22);
    }
    }

    .svg-elem-16 {
    -webkit-animation: animate-svg-fill-16 0.7s cubic-bezier(0.47, 0, 0.745, 0.715) 2.3s both;
            animation: animate-svg-fill-16 0.7s cubic-bezier(0.47, 0, 0.745, 0.715) 2.3s both;
    }
    ]]></style>
    <g id="#ffffffff"></g>
    <g id="#969696ff">
        <path fill="#969696" opacity="1.00" d=" M 1350.00 175.01 C 1439.15 139.10 1542.73 139.66 1631.03 177.97 C 1684.52 200.63 1732.11 236.68 1769.32 281.19 C 1765.77 283.55 1762.40 286.18 1759.21 288.98 C 1702.69 220.07 1619.09 173.97 1530.49 163.59 C 1472.66 156.18 1413.12 163.45 1358.87 184.84 C 1303.04 206.54 1252.82 242.76 1214.77 289.02 C 1211.56 286.22 1208.21 283.58 1204.70 281.20 C 1243.44 234.59 1293.71 197.57 1350.00 175.01 Z" class="svg-elem-1"></path>
        <path fill="#969696" opacity="1.00" d=" M 1150.18 370.15 C 1153.79 372.22 1157.49 374.26 1161.39 375.80 C 1143.67 418.37 1133.65 464.19 1133.13 510.35 C 1129.20 511.84 1125.21 513.15 1121.20 514.37 C 1120.52 464.91 1131.44 415.78 1150.18 370.15 Z" class="svg-elem-2"></path>
        <path fill="#969696" opacity="1.00" d=" M 1812.61 375.76 C 1816.50 374.23 1820.15 372.19 1823.83 370.16 C 1832.39 392.61 1840.66 415.29 1845.12 438.97 C 1840.78 438.95 1836.55 438.95 1832.31 438.96 C 1828.29 417.18 1820.79 396.28 1812.61 375.76 Z" class="svg-elem-3"></path>
        <path fill="#969696" opacity="1.00" d=" M 1836.88 462.00 C 1840.88 462.00 1844.93 462.00 1849.01 462.01 C 1863.05 553.70 1839.85 650.43 1785.84 725.83 C 1734.11 799.59 1654.04 853.04 1565.88 871.85 C 1556.99 873.84 1548.00 875.20 1539.08 876.94 C 1538.95 872.63 1538.93 868.36 1538.10 864.13 C 1602.80 855.53 1664.39 827.18 1714.29 785.29 C 1784.52 726.79 1830.58 640.09 1839.08 549.02 C 1842.56 520.06 1840.56 490.83 1836.88 462.00 Z" class="svg-elem-4"></path>
        <path fill="#969696" opacity="1.00" d=" M 1121.92 538.05 C 1125.93 536.88 1129.90 535.53 1133.89 534.22 C 1137.03 591.50 1154.20 647.91 1184.08 696.91 C 1237.52 786.38 1332.45 850.35 1435.95 864.18 C 1435.34 868.41 1434.99 872.70 1434.95 876.99 C 1398.95 871.31 1363.50 861.29 1330.59 845.48 C 1275.84 819.68 1227.71 779.90 1191.83 731.18 C 1150.78 675.19 1125.91 607.42 1121.92 538.05 Z" class="svg-elem-5"></path>
    </g>
    <g id="#6b6b6bff">
        <path fill="#6b6b6b" opacity="1.00" d=" M 1128.41 312.39 C 1134.06 290.77 1155.35 273.75 1178.00 274.95 C 1187.33 274.27 1196.55 276.76 1204.70 281.20 C 1208.21 283.58 1211.56 286.22 1214.77 289.02 C 1225.77 299.47 1231.62 314.88 1230.08 330.02 C 1229.77 348.15 1218.14 365.06 1201.98 372.91 C 1189.68 379.86 1174.67 378.88 1161.39 375.80 C 1157.49 374.26 1153.79 372.22 1150.18 370.15 C 1130.95 358.54 1122.64 333.69 1128.41 312.39 Z" class="svg-elem-6"></path>
        <path fill="#6b6b6b" opacity="1.00" d=" M 1769.32 281.19 C 1786.02 272.13 1808.13 272.08 1824.01 283.00 C 1837.26 291.29 1846.45 306.28 1846.91 322.03 C 1849.36 340.75 1839.62 360.14 1823.83 370.16 C 1820.15 372.19 1816.50 374.23 1812.61 375.76 C 1805.67 378.05 1798.29 378.55 1791.06 377.83 C 1770.57 377.55 1752.30 362.02 1746.04 342.96 C 1740.46 324.40 1744.64 302.37 1759.21 288.98 C 1762.40 286.18 1765.77 283.55 1769.32 281.19 Z" class="svg-elem-7"></path>
        <path fill="#6b6b6b" opacity="1.00" d=" M 1435.95 864.18 C 1440.56 837.41 1469.02 817.22 1495.86 823.22 C 1516.91 825.85 1534.11 843.61 1538.10 864.13 C 1538.93 868.36 1538.95 872.63 1539.08 876.94 C 1538.32 898.11 1522.94 917.52 1502.92 923.96 C 1491.58 926.83 1479.13 927.39 1468.14 922.87 C 1449.44 915.69 1435.80 897.08 1434.95 876.99 C 1434.99 872.70 1435.34 868.41 1435.95 864.18 Z" class="svg-elem-8"></path>
    </g>
    <g id="#161616ff">
        <path fill="#161616" opacity="1.00" d=" M 223.44 430.57 C 230.38 429.75 237.44 429.64 244.38 430.59 C 257.53 433.09 268.57 442.13 276.05 452.96 C 311.07 500.53 346.87 547.51 382.07 594.94 C 385.77 600.46 392.15 605.40 390.93 612.85 C 389.60 622.31 375.74 624.81 370.51 617.48 C 335.82 570.88 300.76 524.55 266.05 477.96 C 259.11 468.81 251.60 458.55 240.28 454.76 C 225.99 450.17 213.83 461.58 206.05 472.03 C 174.33 513.69 143.12 555.74 111.43 597.42 C 105.75 604.73 100.75 612.62 94.28 619.28 C 90.98 622.54 85.60 622.14 81.62 620.42 C 77.07 618.37 75.98 612.67 76.16 608.20 C 80.02 599.59 86.78 592.80 92.14 585.15 C 122.46 544.46 152.56 503.60 183.00 463.00 C 188.95 455.05 194.18 446.28 202.12 440.09 C 208.45 435.52 215.62 431.68 223.44 430.57 Z" class="svg-elem-9"></path>
        <path fill="#161616" opacity="1.00" d=" M 504.43 439.56 C 514.26 438.70 524.14 438.94 534.00 438.95 C 622.67 439.15 711.35 438.83 800.01 439.08 C 808.88 440.12 811.96 452.17 806.30 458.30 C 802.14 462.65 795.38 461.55 790.03 462.01 C 696.68 462.06 603.32 461.89 509.98 462.06 C 497.24 461.74 484.65 471.82 482.54 484.44 C 477.69 502.31 495.02 520.67 512.96 518.95 C 597.98 519.07 683.00 518.98 768.02 518.97 C 776.88 518.85 786.04 519.86 794.02 524.00 C 810.61 531.52 822.23 548.84 822.92 567.03 C 825.39 587.61 812.88 608.73 794.04 617.07 C 784.12 621.90 772.80 622.02 762.01 622.07 C 670.33 621.93 578.64 622.01 486.95 622.04 C 480.52 622.34 473.71 616.90 474.89 609.95 C 474.54 606.74 476.33 603.73 478.69 601.70 C 481.91 597.77 487.65 599.66 491.97 598.95 C 583.65 599.09 675.34 598.88 767.03 599.08 C 775.64 599.16 785.56 598.53 791.93 591.92 C 799.59 585.75 803.51 575.39 801.42 565.66 C 799.57 554.82 790.96 545.49 780.34 542.69 C 766.94 541.27 753.44 542.14 740.00 541.99 C 663.33 541.95 586.66 542.11 509.99 541.94 C 489.15 541.10 469.54 526.88 463.09 506.96 C 459.45 493.94 459.57 479.15 466.02 466.99 C 473.43 452.48 488.02 441.34 504.43 439.56 Z" class="svg-elem-10"></path>
        <path fill="#161616" opacity="1.00" d=" M 892.95 448.01 C 894.21 439.32 905.73 435.85 911.82 442.22 C 941.77 466.72 970.73 494.02 1006.89 509.17 C 1027.02 517.96 1049.37 518.77 1071.00 519.08 C 1087.78 519.05 1104.94 519.19 1121.20 514.37 C 1125.21 513.15 1129.20 511.84 1133.13 510.35 C 1170.16 495.19 1199.48 466.96 1230.12 442.14 C 1235.85 435.73 1248.02 439.55 1248.79 448.15 C 1250.35 455.99 1242.69 460.35 1238.02 465.02 C 1206.11 491.83 1173.56 519.69 1133.89 534.22 C 1129.90 535.53 1125.93 536.88 1121.92 538.05 C 1111.35 540.73 1100.38 540.80 1089.71 542.82 C 1085.64 543.60 1082.82 547.40 1082.53 551.42 C 1081.01 571.59 1082.63 591.84 1082.01 612.05 C 1081.86 616.58 1078.11 620.97 1073.60 621.60 C 1066.73 623.66 1058.59 617.39 1060.11 610.00 C 1059.41 591.34 1060.59 572.67 1059.87 554.02 C 1059.64 549.32 1057.11 544.20 1052.29 542.86 C 1041.46 541.09 1030.34 541.15 1019.69 538.34 C 994.66 532.15 972.39 518.19 951.58 503.44 C 935.56 491.59 920.09 479.02 905.03 465.98 C 899.68 461.23 891.52 456.57 892.95 448.01 Z" class="svg-elem-11"></path>
        <path fill="#161616" opacity="1.00" d=" M 1362.41 439.58 C 1373.89 438.49 1385.46 439.02 1397.00 438.98 C 1483.68 439.06 1570.37 438.94 1657.05 439.01 C 1663.28 439.17 1668.42 445.83 1667.11 452.02 C 1667.03 459.01 1659.09 462.53 1652.98 461.83 C 1557.99 462.31 1462.97 461.76 1367.98 462.06 C 1351.72 461.51 1337.70 477.84 1340.05 493.87 C 1342.19 508.28 1356.03 520.40 1370.96 518.95 C 1457.64 519.17 1544.33 518.79 1631.01 519.11 C 1657.09 518.89 1681.06 541.64 1681.09 567.98 C 1682.96 588.25 1670.78 609.08 1652.05 617.09 C 1642.09 621.84 1630.80 622.06 1620.01 622.07 C 1527.68 621.83 1435.33 622.20 1343.01 621.90 C 1334.03 621.62 1329.51 609.72 1335.22 603.21 C 1338.74 597.93 1345.62 599.46 1350.97 598.98 C 1444.32 598.94 1537.67 599.13 1631.02 598.92 C 1644.54 599.62 1657.54 588.94 1659.54 575.57 C 1662.87 559.60 1649.47 542.07 1632.98 542.18 C 1544.66 541.68 1456.32 542.24 1368.00 541.94 C 1342.78 541.29 1319.44 519.61 1318.90 494.03 C 1315.77 468.01 1336.67 442.60 1362.41 439.58 Z" class="svg-elem-12"></path>
        <path fill="#161616" opacity="1.00" d=" M 1751.95 455.01 C 1748.22 448.39 1753.41 439.20 1760.95 439.04 C 1784.72 438.52 1808.51 439.29 1832.31 438.96 C 1836.55 438.95 1840.78 438.95 1845.12 438.97 C 1925.43 439.04 2005.75 438.99 2086.06 438.97 C 2090.28 439.11 2095.13 441.06 2096.74 445.29 C 2100.08 451.87 2095.17 461.34 2087.59 461.53 C 2041.08 462.81 1994.52 461.43 1948.00 462.11 C 1941.42 460.95 1934.77 467.32 1936.11 474.00 C 1935.66 519.00 1936.30 564.01 1935.92 609.02 C 1935.99 614.39 1932.99 620.29 1927.34 621.42 C 1919.75 624.15 1911.37 616.96 1913.15 608.98 C 1912.68 563.97 1913.19 518.95 1913.04 473.94 C 1912.93 470.31 1911.34 466.74 1908.84 464.17 C 1905.45 460.99 1900.07 462.63 1896.03 461.95 C 1880.35 461.81 1864.67 462.09 1849.01 462.01 C 1844.93 462.00 1840.88 462.00 1836.88 462.00 C 1812.92 461.70 1788.97 462.57 1765.04 461.80 C 1759.86 462.18 1753.95 460.28 1751.95 455.01 Z" class="svg-elem-13"></path>
        <path fill="#161616" opacity="1.00" d=" M 2175.43 439.56 C 2208.57 438.13 2241.81 439.44 2275.00 439.00 C 2351.67 438.96 2428.35 439.09 2505.02 438.92 C 2509.81 439.39 2515.56 438.05 2519.78 441.22 C 2525.60 445.54 2525.35 455.32 2519.70 459.68 C 2515.40 462.47 2509.77 461.50 2505.03 462.01 C 2396.67 462.01 2288.31 461.98 2179.96 462.02 C 2176.05 462.02 2171.95 460.63 2169.54 457.43 C 2164.90 451.66 2167.52 440.72 2175.43 439.56 Z" class="svg-elem-14"></path>
        <path fill="#161616" opacity="1.00" d=" M 2601.44 439.44 C 2608.49 437.00 2617.45 443.17 2615.89 451.00 C 2616.34 491.01 2615.69 531.03 2616.04 571.04 C 2616.80 585.83 2629.93 599.35 2645.03 598.80 C 2738.35 599.32 2831.70 598.79 2925.03 599.03 C 2932.04 597.74 2940.37 603.28 2939.11 611.05 C 2939.58 617.76 2932.44 623.10 2925.99 621.85 C 2837.66 622.27 2749.32 621.77 2661.00 622.09 C 2648.60 621.91 2635.45 622.52 2624.04 616.89 C 2605.76 608.81 2592.26 589.41 2593.92 569.03 C 2594.08 529.00 2593.94 488.97 2593.95 448.95 C 2593.70 444.48 2597.07 440.28 2601.44 439.44 Z" class="svg-elem-15"></path>
        <path fill="#161616" opacity="1.00" d=" M 2177.39 519.49 C 2282.23 518.23 2387.14 519.53 2492.00 518.86 C 2498.11 519.20 2505.68 517.47 2510.61 522.36 C 2514.00 525.52 2512.74 530.71 2513.07 534.84 C 2510.60 539.69 2505.48 542.68 2499.98 541.85 C 2399.98 542.24 2299.96 541.84 2199.96 542.02 C 2197.37 542.02 2194.76 543.11 2193.21 545.21 C 2188.36 551.00 2190.26 559.10 2189.77 566.01 C 2190.25 572.97 2188.92 580.80 2193.05 586.97 C 2197.72 594.28 2206.21 599.28 2215.03 598.81 C 2313.36 599.32 2411.71 598.78 2510.04 599.04 C 2518.88 597.21 2527.29 606.65 2523.08 615.04 C 2520.66 622.70 2511.21 621.81 2505.03 622.01 C 2408.35 621.95 2311.66 622.10 2214.99 621.93 C 2195.52 622.52 2178.05 608.61 2170.81 591.14 C 2168.10 583.39 2166.99 575.20 2167.06 567.02 C 2166.95 553.12 2166.40 539.17 2167.36 525.30 C 2167.54 520.27 2173.68 519.88 2177.39 519.49 Z" class="svg-elem-16"></path>
    </g>
</svg>